<svg width="50" height="50" xmlns="http://www.w3.org/2000/svg">

 <metadata>image/svg+xmlOpen Clip Art LibraryHouse Line Art2010-08-04T03:40:59http://openclipart.org/detail/77047/house-line-art-by-gammilliangammillianblack and whiteclip artclipartcoloring bookhouseline artoutline</metadata>
 <g>
  <title>background</title>
  <rect fill="none" id="canvas_background" height="52" width="52" y="-1" x="-1"/>
 </g>
 <g>
  <title>Layer 1</title>
  <g display="inline" id="layer1"/>
  <g stroke="null" display="inline" id="layer2">
   <path stroke="#2196f3" fill="#2196f3" fill-rule="nonzero" stroke-width="5.48125" stroke-miterlimit="4" id="path4555" d="m43.310207,25.135044l-17.376905,-17.04041l-17.376904,17.04041l0,20.20488c0,0.196055 0.041935,0.382572 0.115334,0.552525c0.073399,0.169953 0.176344,0.323491 0.307555,0.452068c0.131213,0.128574 0.287898,0.229452 0.461335,0.301377c0.173437,0.071926 0.363772,0.113017 0.563852,0.113017l15.928829,0l15.92883,0c0.200075,0 0.390415,-0.041091 0.563852,-0.113017c0.173438,-0.071924 0.330123,-0.172803 0.461333,-0.301377c0.131213,-0.128577 0.234157,-0.282115 0.307558,-0.452068c0.073399,-0.169953 0.115332,-0.35647 0.115332,-0.552525l0,-20.20488z"/>
   <path stroke="#2196f3" fill="#f2f2f2" fill-rule="nonzero" stroke-width="5.48125" stroke-miterlimit="4" id="path4498" d="m44.130356,19.986504l-16.67209,-16.36231c-0.205324,-0.201099 -0.453879,-0.359962 -0.717629,-0.464624c-0.263752,-0.104663 -0.5427,-0.155129 -0.832964,-0.15069c-0.279167,0.003887 -0.554863,0.05874 -0.807334,0.163246c-0.25247,0.104507 -0.48171,0.258667 -0.679185,0.452067l-16.684905,16.36231l0,5.952215l18.197053,-17.844085l18.197054,17.844085l0,-5.952215z"/>
   <path stroke="#2196f3" fill="#b3b3b3" fill-rule="nonzero" stroke-width="5.48125" stroke-miterlimit="4" id="path4553" d="m43.310207,19.182829l-15.851941,-15.558635c-0.205324,-0.201099 -0.453879,-0.359962 -0.717629,-0.464624c-0.263752,-0.104663 -0.5427,-0.155129 -0.832964,-0.15069c-0.279167,0.003887 -0.554863,0.05874 -0.807334,0.163246c-0.25247,0.104507 -0.48171,0.258667 -0.679185,0.452067l-15.864756,15.558635l0,5.952215l17.376904,-17.04041l17.376905,17.04041l0,-5.952215z"/>
   <path stroke="#2196f3" fill="#2196f3" fill-rule="nonzero" stroke-width="5.48125" stroke-miterlimit="4" id="rect3345" d="m25.849959,3.00888c-0.558329,0.007787 -1.091574,0.228512 -1.486519,0.615314l-20.157724,19.76537c-0.838676,0.821828 -0.838676,2.154277 0,2.976106c0.838678,0.821829 2.198438,0.821829 3.037116,0l18.632757,-18.271036l18.632759,18.271036c0.838675,0.821829 2.198438,0.821829 3.037113,0c0.838677,-0.821829 0.838677,-2.154278 0,-2.976106l-20.144907,-19.76537c-0.410645,-0.4022 -0.970068,-0.624193 -1.550594,-0.615314"/>
   <path stroke="#2196f3" fill="#ffffff" fill-rule="nonzero" stroke-width="5.48125" stroke-linecap="round" stroke-linejoin="round" stroke-miterlimit="4" stroke-dashoffset="0" id="path4557" d="m34.288569,46.75891l-16.710534,0l0,-20.204879c0,-0.196057 0.041935,-0.382573 0.115334,-0.552526c0.073399,-0.169954 0.176344,-0.323491 0.307555,-0.452067c0.131213,-0.128576 0.287898,-0.229454 0.461335,-0.301379c0.173436,-0.071924 0.363772,-0.113016 0.563852,-0.113016l13.814383,0c0.200074,0 0.390414,0.041091 0.563851,0.113016c0.173439,0.071926 0.330123,0.172803 0.461335,0.301379c0.131212,0.128576 0.234157,0.282113 0.307556,0.452067c0.0734,0.169953 0.115333,0.356469 0.115333,0.552526l0,20.204879z"/>
  </g>
 </g>
</svg>